<?xml version="1.0" encoding="utf-8"?>
<svg aria-hidden="true" focusable="false" data-prefix="fas" data-icon="bars" class="svg-inline--fa fa-bars fa-w-14" role="img" viewBox="0 0 448 512" xmlns="http://www.w3.org/2000/svg">
  <path fill="currentColor" d="M -143.34 291.012 L 272.66 291.012 C 281.497 291.012 288.66 283.849 288.66 275.012 L 288.66 235.012 C 288.66 226.175 281.497 219.012 272.66 219.012 L -143.34 219.012 C -152.177 219.012 -159.34 226.175 -159.34 235.012 L -159.34 275.012 C -159.34 283.849 -152.177 291.012 -143.34 291.012 Z" transform="matrix(0.000001, 1, -1, 0.000001, 319.671932, 190.351735)"/>
  <path fill="currentColor" d="M 179.594 292.821 L 433.294 292.988 C 442.131 292.988 449.287 285.825 449.278 276.988 L 449.237 236.988 C 449.227 228.151 442.057 220.988 433.22 220.988 L 179.52 220.821 C 170.683 220.821 163.527 227.984 163.536 236.821 L 163.577 276.821 C 163.587 285.658 170.757 292.821 179.594 292.821 Z" style="" transform="matrix(-0.001027, 0.999999, -0.999999, -0.001027, 482.476144, 31.994972)"/>
  <path fill="currentColor" d="M 244.141 292.203 L 591.34 292.203 C 600.177 292.203 607.34 285.04 607.34 276.203 L 607.34 236.203 C 607.34 227.366 600.177 220.203 591.34 220.203 L 244.141 220.203 C 235.304 220.203 228.141 227.366 228.141 236.203 L 228.141 276.203 C 228.141 285.04 235.304 292.203 244.141 292.203 Z" transform="matrix(0.000001, 1, -1, 0.000001, 639.542631, -127.137265)"/>
</svg>