<?xml version="1.0" encoding="utf-8"?>
<svg viewBox="0 0 64 64" xmlns="http://www.w3.org/2000/svg">
  <path opacity=".5" fill="#FFF" d="M40 16h10v-1c0-.5-.5-1-1-1h-9v2z"/>
  <path opacity=".75" fill="#FFF" d="M28 14h10v2H28z"/>
  <path fill="#FFF" d="M40 18H26v-4H15c-.5 0-1 .5-1 1v34c0 .5.5 1 1 1h34c.5 0 1-.5 1-1V18H40z"/>
  <path d="M38 22h8v14h-8z" style=""/>
  <path fill-rule="evenodd" clip-rule="evenodd" d="M18 22h18v14H18z" style=""/>
  <path opacity=".5" fill="#FFF" d="M38 24h8v12h-8z"/>
  <path opacity=".5" fill-rule="evenodd" clip-rule="evenodd" fill="#FFF" d="M36 36H18v-4l6-2 4 2 4-2 4-6z"/>
  <path d="M28 40h18v2H28zM28 44h10v2H28zM18 40h8v6h-8z" style=""/>
  <path opacity=".5" fill="#FFF" d="M18 42h8v4h-8z"/>
</svg>